<mxfile host="65bd71144e">
    <diagram id="Hea7SzmVBX6l_cR1eCe_" name="Main">
        <mxGraphModel dx="1374" dy="826" grid="1" gridSize="10" guides="1" tooltips="1" connect="1" arrows="1" fold="1" page="1" pageScale="1" pageWidth="850" pageHeight="1100" math="0" shadow="0">
            <root>
                <mxCell id="0"/>
                <mxCell id="1" parent="0"/>
                <mxCell id="8Z9DAsG8sam3mDeC-Hfh-8" value="" style="edgeStyle=orthogonalEdgeStyle;rounded=0;orthogonalLoop=1;jettySize=auto;html=1;" parent="1" source="8Z9DAsG8sam3mDeC-Hfh-3" target="8Z9DAsG8sam3mDeC-Hfh-4" edge="1">
                    <mxGeometry relative="1" as="geometry"/>
                </mxCell>
                <mxCell id="8Z9DAsG8sam3mDeC-Hfh-3" value="Start" style="rounded=1;whiteSpace=wrap;html=1;arcSize=50;" parent="1" vertex="1">
                    <mxGeometry x="365" y="200" width="120" height="60" as="geometry"/>
                </mxCell>
                <mxCell id="8Z9DAsG8sam3mDeC-Hfh-9" value="" style="edgeStyle=orthogonalEdgeStyle;rounded=0;orthogonalLoop=1;jettySize=auto;html=1;" parent="1" source="8Z9DAsG8sam3mDeC-Hfh-4" target="8Z9DAsG8sam3mDeC-Hfh-6" edge="1">
                    <mxGeometry relative="1" as="geometry"/>
                </mxCell>
                <mxCell id="8Z9DAsG8sam3mDeC-Hfh-4" value="lem_arr = 0&lt;br&gt;sum = 0&lt;br&gt;t = 9" style="rounded=0;whiteSpace=wrap;html=1;" parent="1" vertex="1">
                    <mxGeometry x="365" y="310" width="120" height="60" as="geometry"/>
                </mxCell>
                <mxCell id="8Z9DAsG8sam3mDeC-Hfh-11" value="" style="edgeStyle=orthogonalEdgeStyle;rounded=0;orthogonalLoop=1;jettySize=auto;html=1;" parent="1" source="8Z9DAsG8sam3mDeC-Hfh-5" target="8Z9DAsG8sam3mDeC-Hfh-7" edge="1">
                    <mxGeometry relative="1" as="geometry"/>
                </mxCell>
                <mxCell id="8Z9DAsG8sam3mDeC-Hfh-5" value="i = 0" style="rounded=0;whiteSpace=wrap;html=1;" parent="1" vertex="1">
                    <mxGeometry x="365.5" y="500" width="120" height="60" as="geometry"/>
                </mxCell>
                <mxCell id="8Z9DAsG8sam3mDeC-Hfh-10" value="" style="edgeStyle=orthogonalEdgeStyle;rounded=0;orthogonalLoop=1;jettySize=auto;html=1;" parent="1" source="8Z9DAsG8sam3mDeC-Hfh-6" target="8Z9DAsG8sam3mDeC-Hfh-5" edge="1">
                    <mxGeometry relative="1" as="geometry"/>
                </mxCell>
                <mxCell id="8Z9DAsG8sam3mDeC-Hfh-6" value="input len_arr" style="shape=parallelogram;perimeter=parallelogramPerimeter;whiteSpace=wrap;html=1;fixedSize=1;" parent="1" vertex="1">
                    <mxGeometry x="348" y="400" width="155" height="60" as="geometry"/>
                </mxCell>
                <mxCell id="8Z9DAsG8sam3mDeC-Hfh-13" value="" style="edgeStyle=orthogonalEdgeStyle;rounded=0;orthogonalLoop=1;jettySize=auto;html=1;" parent="1" source="8Z9DAsG8sam3mDeC-Hfh-7" target="8Z9DAsG8sam3mDeC-Hfh-12" edge="1">
                    <mxGeometry relative="1" as="geometry"/>
                </mxCell>
                <mxCell id="8Z9DAsG8sam3mDeC-Hfh-7" value="" style="shape=waypoint;sketch=0;fillStyle=solid;size=6;pointerEvents=1;points=[];fillColor=none;resizable=0;rotatable=0;perimeter=centerPerimeter;snapToPoint=1;" parent="1" vertex="1">
                    <mxGeometry x="405.5" y="580" width="40" height="40" as="geometry"/>
                </mxCell>
                <mxCell id="8Z9DAsG8sam3mDeC-Hfh-15" value="Yes" style="edgeStyle=orthogonalEdgeStyle;rounded=0;orthogonalLoop=1;jettySize=auto;html=1;" parent="1" source="8Z9DAsG8sam3mDeC-Hfh-12" target="8Z9DAsG8sam3mDeC-Hfh-14" edge="1">
                    <mxGeometry relative="1" as="geometry"/>
                </mxCell>
                <mxCell id="8Z9DAsG8sam3mDeC-Hfh-37" value="No" style="edgeStyle=orthogonalEdgeStyle;rounded=0;orthogonalLoop=1;jettySize=auto;html=1;entryX=0.5;entryY=0;entryDx=0;entryDy=0;" parent="1" source="8Z9DAsG8sam3mDeC-Hfh-12" target="8Z9DAsG8sam3mDeC-Hfh-34" edge="1">
                    <mxGeometry x="-0.9431" relative="1" as="geometry">
                        <mxPoint x="530" y="1418.421052631579" as="targetPoint"/>
                        <Array as="points">
                            <mxPoint x="550" y="680"/>
                            <mxPoint x="550" y="1418"/>
                            <mxPoint x="426" y="1418"/>
                        </Array>
                        <mxPoint as="offset"/>
                    </mxGeometry>
                </mxCell>
                <mxCell id="8Z9DAsG8sam3mDeC-Hfh-12" value="i &amp;lt; len_arr ?" style="rhombus;whiteSpace=wrap;html=1;" parent="1" vertex="1">
                    <mxGeometry x="358" y="640" width="135" height="80" as="geometry"/>
                </mxCell>
                <mxCell id="8Z9DAsG8sam3mDeC-Hfh-17" value="" style="edgeStyle=orthogonalEdgeStyle;rounded=0;orthogonalLoop=1;jettySize=auto;html=1;" parent="1" source="8Z9DAsG8sam3mDeC-Hfh-14" target="8Z9DAsG8sam3mDeC-Hfh-16" edge="1">
                    <mxGeometry relative="1" as="geometry"/>
                </mxCell>
                <mxCell id="8Z9DAsG8sam3mDeC-Hfh-14" value="sum = sum + t" style="whiteSpace=wrap;html=1;" parent="1" vertex="1">
                    <mxGeometry x="365.5" y="760" width="120" height="60" as="geometry"/>
                </mxCell>
                <mxCell id="8Z9DAsG8sam3mDeC-Hfh-22" value="Yes" style="edgeStyle=orthogonalEdgeStyle;rounded=0;orthogonalLoop=1;jettySize=auto;html=1;" parent="1" source="8Z9DAsG8sam3mDeC-Hfh-16" target="8Z9DAsG8sam3mDeC-Hfh-21" edge="1">
                    <mxGeometry relative="1" as="geometry"/>
                </mxCell>
                <mxCell id="8Z9DAsG8sam3mDeC-Hfh-25" value="No" style="edgeStyle=orthogonalEdgeStyle;rounded=0;orthogonalLoop=1;jettySize=auto;html=1;" parent="1" source="8Z9DAsG8sam3mDeC-Hfh-16" target="8Z9DAsG8sam3mDeC-Hfh-23" edge="1">
                    <mxGeometry x="-0.8503" relative="1" as="geometry">
                        <mxPoint x="520" y="1100" as="targetPoint"/>
                        <Array as="points">
                            <mxPoint x="520" y="890"/>
                            <mxPoint x="520" y="1060"/>
                        </Array>
                        <mxPoint as="offset"/>
                    </mxGeometry>
                </mxCell>
                <mxCell id="8Z9DAsG8sam3mDeC-Hfh-16" value="i != 0" style="rhombus;whiteSpace=wrap;html=1;" parent="1" vertex="1">
                    <mxGeometry x="373" y="850" width="104" height="80" as="geometry"/>
                </mxCell>
                <mxCell id="8Z9DAsG8sam3mDeC-Hfh-24" value="" style="edgeStyle=orthogonalEdgeStyle;rounded=0;orthogonalLoop=1;jettySize=auto;html=1;" parent="1" source="8Z9DAsG8sam3mDeC-Hfh-21" target="8Z9DAsG8sam3mDeC-Hfh-23" edge="1">
                    <mxGeometry relative="1" as="geometry"/>
                </mxCell>
                <mxCell id="8Z9DAsG8sam3mDeC-Hfh-21" value="output &quot; + &quot;" style="shape=parallelogram;perimeter=parallelogramPerimeter;whiteSpace=wrap;html=1;fixedSize=1;" parent="1" vertex="1">
                    <mxGeometry x="365.5" y="960" width="120" height="60" as="geometry"/>
                </mxCell>
                <mxCell id="8Z9DAsG8sam3mDeC-Hfh-28" value="" style="edgeStyle=orthogonalEdgeStyle;rounded=0;orthogonalLoop=1;jettySize=auto;html=1;" parent="1" source="8Z9DAsG8sam3mDeC-Hfh-23" target="8Z9DAsG8sam3mDeC-Hfh-27" edge="1">
                    <mxGeometry relative="1" as="geometry"/>
                </mxCell>
                <mxCell id="8Z9DAsG8sam3mDeC-Hfh-23" value="" style="shape=waypoint;sketch=0;fillStyle=solid;size=6;pointerEvents=1;points=[];fillColor=none;resizable=0;rotatable=0;perimeter=centerPerimeter;snapToPoint=1;" parent="1" vertex="1">
                    <mxGeometry x="405" y="1040" width="40" height="40" as="geometry"/>
                </mxCell>
                <mxCell id="8Z9DAsG8sam3mDeC-Hfh-30" value="" style="edgeStyle=orthogonalEdgeStyle;rounded=0;orthogonalLoop=1;jettySize=auto;html=1;" parent="1" source="8Z9DAsG8sam3mDeC-Hfh-27" target="8Z9DAsG8sam3mDeC-Hfh-29" edge="1">
                    <mxGeometry relative="1" as="geometry"/>
                </mxCell>
                <mxCell id="8Z9DAsG8sam3mDeC-Hfh-27" value="output t" style="shape=parallelogram;perimeter=parallelogramPerimeter;whiteSpace=wrap;html=1;fixedSize=1;" parent="1" vertex="1">
                    <mxGeometry x="358" y="1110" width="134.5" height="60" as="geometry"/>
                </mxCell>
                <mxCell id="8Z9DAsG8sam3mDeC-Hfh-32" value="" style="edgeStyle=orthogonalEdgeStyle;rounded=0;orthogonalLoop=1;jettySize=auto;html=1;" parent="1" source="8Z9DAsG8sam3mDeC-Hfh-29" target="8Z9DAsG8sam3mDeC-Hfh-31" edge="1">
                    <mxGeometry relative="1" as="geometry"/>
                </mxCell>
                <mxCell id="8Z9DAsG8sam3mDeC-Hfh-29" value="t = t * 10 + 9" style="rounded=0;whiteSpace=wrap;html=1;" parent="1" vertex="1">
                    <mxGeometry x="365" y="1210" width="120" height="60" as="geometry"/>
                </mxCell>
                <mxCell id="8Z9DAsG8sam3mDeC-Hfh-33" style="edgeStyle=orthogonalEdgeStyle;rounded=0;orthogonalLoop=1;jettySize=auto;html=1;" parent="1" source="8Z9DAsG8sam3mDeC-Hfh-31" target="8Z9DAsG8sam3mDeC-Hfh-7" edge="1">
                    <mxGeometry relative="1" as="geometry">
                        <mxPoint x="310" y="596.6315660978619" as="targetPoint"/>
                        <Array as="points">
                            <mxPoint x="300" y="1390"/>
                            <mxPoint x="300" y="597"/>
                            <mxPoint x="426" y="597"/>
                        </Array>
                    </mxGeometry>
                </mxCell>
                <mxCell id="8Z9DAsG8sam3mDeC-Hfh-31" value="i = i + 1" style="whiteSpace=wrap;html=1;rounded=0;" parent="1" vertex="1">
                    <mxGeometry x="365" y="1310" width="120" height="60" as="geometry"/>
                </mxCell>
                <mxCell id="8Z9DAsG8sam3mDeC-Hfh-36" value="" style="edgeStyle=orthogonalEdgeStyle;rounded=0;orthogonalLoop=1;jettySize=auto;html=1;" parent="1" source="8Z9DAsG8sam3mDeC-Hfh-34" target="8Z9DAsG8sam3mDeC-Hfh-35" edge="1">
                    <mxGeometry relative="1" as="geometry"/>
                </mxCell>
                <mxCell id="8Z9DAsG8sam3mDeC-Hfh-34" value="output sum" style="shape=parallelogram;perimeter=parallelogramPerimeter;whiteSpace=wrap;html=1;fixedSize=1;" parent="1" vertex="1">
                    <mxGeometry x="343" y="1450" width="165" height="60" as="geometry"/>
                </mxCell>
                <mxCell id="8Z9DAsG8sam3mDeC-Hfh-35" value="Stop" style="rounded=1;whiteSpace=wrap;html=1;arcSize=50;" parent="1" vertex="1">
                    <mxGeometry x="365.5" y="1550" width="120" height="60" as="geometry"/>
                </mxCell>
            </root>
        </mxGraphModel>
    </diagram>
</mxfile>